<svg width="52" height="30" viewBox="0 0 52 30" fill="none" xmlns="http://www.w3.org/2000/svg">
<path d="M6.5 15H26V16.875H6.5V15ZM3.25 10.3125H19.5V12.1875H3.25V10.3125Z" fill="#BDBDBD"/>
<path d="M48.6183 15.5681L43.7433 9.00562C43.6182 8.83695 43.41 8.69319 43.1445 8.59219C42.879 8.49119 42.5679 8.4374 42.2499 8.4375H37.3749V6.5625C37.3749 6.31386 37.2037 6.0754 36.899 5.89959C36.5942 5.72377 36.1809 5.625 35.7499 5.625H9.74993V7.5H34.1249V19.2712C33.3845 19.5193 32.7365 19.8495 32.2183 20.2427C31.7001 20.636 31.3219 21.0845 31.1057 21.5625H20.8942C20.4987 20.6788 19.5581 19.9086 18.2487 19.3963C16.9393 18.884 15.351 18.6649 13.7816 18.7799C12.2121 18.8949 10.7692 19.3362 9.72341 20.021C8.67758 20.7059 8.10059 21.5873 8.10059 22.5C8.10059 23.4127 8.67758 24.2941 9.72341 24.979C10.7692 25.6638 12.2121 26.1051 13.7816 26.2201C15.351 26.3351 16.9393 26.116 18.2487 25.6037C19.5581 25.0914 20.4987 24.3212 20.8942 23.4375H31.1057C31.4592 24.2421 32.2676 24.9557 33.4031 25.4655C34.5385 25.9752 35.9362 26.252 37.3749 26.252C38.8137 26.252 40.2113 25.9752 41.3468 25.4655C42.4823 24.9557 43.2907 24.2421 43.6442 23.4375H47.1249C47.5559 23.4375 47.9692 23.3387 48.274 23.1629C48.5787 22.9871 48.7499 22.7486 48.7499 22.5V15.9375C48.75 15.8105 48.7052 15.6848 48.6183 15.5681ZM14.6249 24.375C13.9821 24.375 13.3538 24.265 12.8193 24.059C12.2849 23.853 11.8683 23.5601 11.6223 23.2175C11.3763 22.8749 11.312 22.4979 11.4374 22.1342C11.5628 21.7705 11.8723 21.4364 12.3268 21.1742C12.7814 20.912 13.3605 20.7334 13.9909 20.661C14.6213 20.5887 15.2748 20.6258 15.8687 20.7677C16.4625 20.9096 16.9701 21.15 17.3272 21.4583C17.6843 21.7666 17.8749 22.1292 17.8749 22.5C17.8741 22.9971 17.5314 23.4738 16.9221 23.8253C16.3128 24.1768 15.4866 24.3745 14.6249 24.375ZM37.3749 10.3125H41.1774L44.6614 15H37.3749V10.3125ZM37.3749 24.375C36.7321 24.375 36.1038 24.265 35.5693 24.059C35.0349 23.853 34.6183 23.5601 34.3723 23.2175C34.1263 22.8749 34.062 22.4979 34.1874 22.1342C34.3128 21.7705 34.6223 21.4364 35.0768 21.1742C35.5314 20.912 36.1105 20.7334 36.7409 20.661C37.3713 20.5887 38.0248 20.6258 38.6187 20.7677C39.2125 20.9096 39.7201 21.15 40.0772 21.4583C40.4343 21.7666 40.6249 22.1292 40.6249 22.5C40.6241 22.9971 40.2814 23.4738 39.6721 23.8253C39.0628 24.1768 38.2366 24.3745 37.3749 24.375ZM45.4999 21.5625H43.6442C43.2862 20.7595 42.4765 20.0477 41.3419 19.5387C40.2074 19.0297 38.8121 18.7523 37.3749 18.75V16.875H45.4999V21.5625Z" fill="#BDBDBD"/>
</svg>
