<svg width="24" height="24" viewBox="0 0 24 24" fill="none" xmlns="http://www.w3.org/2000/svg">
<path fill-rule="evenodd" clip-rule="evenodd" d="M1.4005 5.72817C0.513624 6.48192 0.408624 7.73629 0.408624 7.73629C0.0416085 9.9622 0.363232 10.8851 0.580653 11.5091C0.65425 11.7203 0.715907 11.8972 0.734874 12.0788C0.764557 12.3695 0.675609 12.6562 0.562583 13.0206C0.397157 13.5538 0.180151 14.2533 0.207999 15.375C0.256749 17.2632 3.55675 19.0425 4.26175 19.3444C4.96487 19.6407 5.00987 20.0157 5.00987 20.0157C5.848 21.8063 8.09237 22.8188 9.568 22.9632C10.7809 23.082 11.905 22.534 12.4927 22.2475C12.6191 22.1859 12.7207 22.1364 12.793 22.1082C13.0609 22.0054 13.3249 22.0184 13.8558 22.0445C14.1384 22.0584 14.4968 22.0761 14.9718 22.0819C15.6599 22.0913 17.9792 21.15 19.6668 18.7744C20.7758 17.2123 21.093 16.0632 21.4134 14.9021C21.5811 14.2946 21.7496 13.6838 22.033 13.0088C23.0736 10.5263 23.2593 9.55129 22.1136 8.32879C21.6205 7.80192 19.0236 6.17254 19.0236 6.17254C18.9843 5.16754 18.9411 4.26567 18.2474 3.26442C17.5574 2.27254 16.6874 1.36879 15.3711 1.08192C12.7293 0.50442 10.7192 1.16817 10.033 1.44942C9.34863 1.73255 7.96112 2.86504 7.96112 2.86504C7.8466 2.95351 7.63824 2.94648 7.34138 2.93646C6.93354 2.9227 6.35864 2.90331 5.6305 3.11817C3.61017 3.71505 2.63543 4.6075 1.8534 5.32352C1.697 5.46672 1.54831 5.60286 1.4005 5.72817ZM2.78608 7.68754C3.14421 6.25879 5.97171 5.04192 6.24921 4.93317C6.52483 4.82442 6.63358 5.00629 6.32983 5.32692C6.08233 5.58942 5.73546 6.09004 5.60233 6.28317C5.40733 6.56817 4.69671 7.64817 4.62546 8.81817C4.56858 9.75223 4.78297 10.4031 4.94712 10.9014C4.98858 11.0273 5.02684 11.1434 5.05671 11.2519C5.20671 11.79 4.85608 11.6119 4.85608 11.6119C4.40928 11.4267 4.16833 11.2396 4.01733 11.1224C4.01244 11.1186 4.00766 11.1149 4.00296 11.1113C2.72046 10.1175 2.46733 8.96442 2.78608 7.68754ZM9.89983 6.30192C10.2636 6.12379 9.92983 5.95317 9.92983 5.95317C9.35421 5.85004 8.45046 5.80504 7.79421 6.23629C7.13796 6.66754 6.73483 8.57442 6.73483 8.57442C6.65421 8.88567 6.63171 9.12379 6.76483 9.17254C6.89796 9.22129 7.17546 8.82379 7.17546 8.82379C7.93398 7.2598 9.4231 6.53426 9.85505 6.3238C9.87155 6.31576 9.88651 6.30847 9.89983 6.30192ZM8.82921 9.29817C8.55921 9.37504 8.58546 9.19317 8.62108 9.10504C8.76733 8.75442 9.41421 8.17879 10.153 7.85442C10.8317 7.55629 11.548 7.51879 11.878 7.74192C13.1473 8.59692 12.2642 10.44 12.2642 10.44C12.0861 10.7625 11.8217 10.6838 11.8255 10.4063C11.8292 10.1288 11.5217 9.60567 10.933 9.22504C10.3377 8.83909 9.29684 9.15617 8.91716 9.27183C8.88181 9.2826 8.8522 9.29162 8.82921 9.29817ZM9.20796 10.6069C8.70358 10.4719 8.76171 10.1794 8.76171 10.1794C8.80671 9.98067 8.66608 9.96567 8.50108 10.02C7.86171 10.2169 7.47171 10.5338 7.73421 11.0438C8.12421 11.8032 9.42358 11.6232 9.42358 11.6232C9.86983 11.5313 10.1323 11.4057 10.273 11.2782C10.4661 11.1 10.5448 10.9275 10.5692 10.8C10.5917 10.695 10.6142 10.5413 10.0836 10.6632C9.84733 10.7175 9.55483 10.7007 9.20796 10.6069ZM8.19733 12.7144C8.03796 12.3544 8.46358 12.6357 8.46358 12.6357C9.21921 12.945 10.5073 13.3275 11.1898 13.0238C11.7805 12.7594 12.3486 11.8688 12.4123 11.7319C12.5436 11.4375 12.8248 11.5369 12.7911 11.9119C12.5746 14.4537 11.6128 14.4011 11.3779 14.3882C11.3626 14.3874 11.3504 14.3867 11.3417 14.3869C11.0098 14.3963 10.6536 14.3907 9.99546 14.1132C8.76921 13.5957 8.35671 13.0744 8.19733 12.7144ZM14.413 7.52442C13.9836 7.31067 14.0605 7.71004 14.0605 7.71004C14.0605 7.71004 14.3005 8.19567 14.4955 8.56504C14.6886 8.93442 15.223 9.98442 14.4955 11.6025C14.4157 11.7801 14.333 11.9384 14.2658 12.0673C14.2002 12.1929 14.1493 12.2905 14.1298 12.3507C14.038 12.6319 14.3023 12.5907 14.3023 12.5907C14.6548 12.4688 15.0823 12.0169 15.2117 11.865C15.703 11.2857 16.0967 10.4494 16.0348 9.53442C15.958 8.37942 14.8405 7.73817 14.413 7.52442ZM9.69733 3.99567C9.76858 3.55692 11.0661 3.45567 11.0661 3.45567C12.6186 3.44629 13.7567 3.79504 14.6117 4.29379C15.5492 4.84317 16.1436 5.57817 16.558 6.22129C16.9423 6.81754 16.5523 6.96004 16.3386 6.84004C16.2916 6.8139 16.2195 6.76461 16.1273 6.70153C15.7961 6.47509 15.205 6.07087 14.5817 5.92129C14.3043 5.85552 14.0237 5.86212 13.7553 5.86844C13.2508 5.88031 12.7893 5.89117 12.4723 5.41879C11.9886 4.69692 11.0061 4.50004 10.8017 4.46067C10.7656 4.4541 10.7061 4.44909 10.6329 4.44292C10.2879 4.41385 9.63856 4.35914 9.69733 3.99567ZM17.653 10.2807C17.5461 10.0538 17.4373 10.0425 17.3567 10.0875C17.279 10.1299 17.2229 10.3537 17.0019 11.2353C16.9883 11.2896 16.9741 11.3463 16.9592 11.4057C16.8748 11.7357 16.558 12.3825 16.0461 12.9957C15.2197 13.9865 13.9336 14.6682 13.2935 15.0075C13.116 15.1016 12.9881 15.1693 12.9336 15.21C12.4161 15.5982 13.0573 15.5569 13.0573 15.5569C13.3667 15.5288 14.4448 15.2963 15.5511 14.7413C15.6168 14.7082 15.6821 14.6758 15.747 14.6436C16.3908 14.3241 16.9864 14.0285 17.4242 13.3182C18.2211 12.0263 17.8667 10.7325 17.653 10.2807ZM18.8286 15.6619C19.8655 14.6719 20.5067 13.1794 20.413 11.3232C20.3717 10.5113 20.098 9.68254 19.783 9.16317C19.4923 8.68692 19.1623 8.48817 19.0686 8.50317C18.9767 8.51817 18.9636 8.76379 18.9767 8.82379C19.0855 9.33004 19.3667 10.785 19.2936 11.9363C19.2055 13.3538 18.778 14.9888 18.6598 15.375C18.5417 15.7632 18.8286 15.6619 18.8286 15.6619ZM16.8373 17.3644C17.7017 16.3163 17.7186 15.6207 17.7186 15.3638C17.7168 15.0094 17.5178 15.2883 17.4675 15.3587C17.4643 15.3632 17.4617 15.3668 17.4598 15.3694C17.2461 15.6769 16.9723 15.9732 16.6555 16.2525C15.688 17.1113 14.3248 17.8069 13.1117 18.1069C11.4505 18.5175 8.73921 18.3957 8.52733 18.3825C8.31546 18.3675 8.16921 18.4744 8.30796 18.6282C8.44671 18.7819 9.93546 19.3125 11.9155 19.3819C13.8936 19.4513 15.9711 18.4144 16.8373 17.3644ZM3.11983 12.8475C2.95671 12.8775 2.93421 13.0875 2.93421 13.0875C3.09764 14.8196 3.72562 15.4341 4.21535 15.9133C4.24251 15.9398 4.26925 15.966 4.29546 15.9919C4.79233 16.485 5.96608 16.8469 6.82671 16.8432C7.68733 16.8413 8.21796 16.4719 8.37171 16.2394C8.52358 16.005 8.29483 15.9619 8.29483 15.9619C8.29483 15.9619 6.83421 15.9825 5.40171 14.9925C4.06858 14.0719 3.50046 13.0932 3.50046 13.0932C3.50046 13.0932 3.28296 12.8194 3.11983 12.8475Z" fill="white"/>
</svg>
